# xmcd CD database file
#
# Track frame offsets:
#	150
#	15263
#	30759
#	50372
#	66534
#	83693
#	100722
#	112670
#	126997
#	144907
#	163656
#	180985
#
# Disc length: 2649 seconds
#
# Revision: 0
# Processed by: cddbd v1.5.2PL0 Copyright (c) Steve Scherf et al.
# Submitted via: CDex 1.51
#
DISCID=840a570c
DTITLE=Tracy Lawrence - The Singer
DYEAR=2011
DGENRE=Country
TTITLE0=Tracy Lawrence - Roswell And Marilyn Monroe
TTITLE1=Tracy Lawrence feat. Rick Huckaby - Cloud Of Dust
TTITLE2=Tracy Lawrence - Saving Savannah 
TTITLE3=Tracy Lawrence - The Singer 
TTITLE4=Tracy Lawrence - Tender Enough
TTITLE5=Tracy Lawrence - Pills 
TTITLE6=Tracy Lawrence - Hard Times 
TTITLE7=Tracy Lawrence - Jealousy 
TTITLE8=Tracy Lawrence - Heaven For A While
TTITLE9=Tracy Lawrence - Whole Lotta Me 
TTITLE10=Tracy Lawrence - Paint Me A Birmingham 
TTITLE11=Tracy Lawrence - Find Out Who Your Friends Are
EXTD=YEAR: 2011
EXTT0=
EXTT1=
EXTT2=
EXTT3=
EXTT4=
EXTT5=
EXTT6=
EXTT7=
EXTT8=
EXTT9=
EXTT10=
EXTT11=
PLAYORDER=
